<svg xmlns="http://www.w3.org/2000/svg" width="36" height="36" viewBox="0 0 36 36"><g><g opacity="-.6"><path fill="#44224b" d="M35.341 32.196a2.227 2.227 0 0 1 0 3.143 2.233 2.233 0 0 1-3.147 0l-8.975-8.966v-1.666l-.57-.591a13.738 13.738 0 0 1-11.278 3.122C5.501 26.247.811 21.352.094 15.445-1.004 6.522 6.514-.989 15.447.11c5.913.717 10.813 5.4 11.806 11.265a13.702 13.702 0 0 1-3.126 11.265l.591.57h1.669zM23.22 13.716a9.486 9.486 0 0 0-9.504-9.494 9.486 9.486 0 0 0-9.503 9.493 9.486 9.486 0 0 0 9.503 9.494 9.486 9.486 0 0 0 9.504-9.494z"/></g></g></svg>